HIERARCHY
ROOT Hips
{
    OFFSET 0.000000 0.000000 0.000000
    CHANNELS 6 Xposition Yposition Zposition Zrotation Xrotation Yrotation
    JOINT Spine
    {
        OFFSET -0.000000 14.517291 0.000000
        CHANNELS 3 Zrotation Xrotation Yrotation
        JOINT Spine1
        {
            OFFSET -0.000000 37.558300 0.000000
            CHANNELS 3 Zrotation Xrotation Yrotation
            JOINT Neck
            {
                OFFSET -0.000000 37.404057 3.400369
                CHANNELS 3 Zrotation Xrotation Yrotation
                JOINT Head
                {
                    OFFSET -0.000000 24.785618 -3.540803
                    CHANNELS 3 Zrotation Xrotation Yrotation
                    End Site
                    {
                        OFFSET -0.000000 35.408028 0.000000
                    }
                }
            }
            JOINT LeftShoulder
            {
                OFFSET 6.992933 33.973492 -0.192664
                CHANNELS 3 Zrotation Xrotation Yrotation
                JOINT LeftArm
                {
                    OFFSET 21.527611 0.000000 0.000000
                    CHANNELS 3 Zrotation Xrotation Yrotation
                    JOINT LeftForeArm
                    {
                        OFFSET 56.353916 0.000000 0.000000
                        CHANNELS 3 Zrotation Xrotation Yrotation
                        JOINT LeftHand
                        {
                            OFFSET 47.774071 0.000000 0.000000
                            CHANNELS 3 Zrotation Xrotation Yrotation
                            End Site
                            {
                                OFFSET 26.556021 0.000000 0.000000
                            }
                        }
                    }
                }
            }
            JOINT RightShoulder
            {
                OFFSET -7.065357 33.973492 -0.192664
                CHANNELS 3 Zrotation Xrotation Yrotation
                JOINT RightArm
                {
                    OFFSET -21.527611 0.000000 0.000000
                    CHANNELS 3 Zrotation Xrotation Yrotation
                    JOINT RightForeArm
                    {
                        OFFSET -56.353916 0.000000 0.000000
                        CHANNELS 3 Zrotation Xrotation Yrotation
                        JOINT RightHand
                        {
                            OFFSET -47.774071 0.000000 0.000000
                            CHANNELS 3 Zrotation Xrotation Yrotation
                            End Site
                            {
                                OFFSET -26.556021 0.000000 0.000000
                            }
                        }
                    }
                }
            }
        }
    }
    JOINT LeftUpLeg
    {
        OFFSET 17.704014 0.000000 0.000000
        CHANNELS 3 Zrotation Xrotation Yrotation
        JOINT LeftLeg
        {
            OFFSET -0.000000 -81.181816 0.000000
            CHANNELS 3 Zrotation Xrotation Yrotation
            JOINT LeftFoot
            {
                OFFSET -0.000000 -62.821102 0.000000
                CHANNELS 3 Zrotation Xrotation Yrotation
                JOINT LeftToeBase
                {
                    OFFSET -0.000000 -11.507608 26.556021
                    CHANNELS 3 Zrotation Xrotation Yrotation
                    End Site
                    {
                        OFFSET -0.000000 0.000000 7.081605
                    }
                }
            }
        }
    }
    JOINT RightUpLeg
    {
        OFFSET -17.704014 0.000000 0.000000
        CHANNELS 3 Zrotation Xrotation Yrotation
        JOINT RightLeg
        {
            OFFSET -0.000000 -81.181816 0.000000
            CHANNELS 3 Zrotation Xrotation Yrotation
            JOINT RightFoot
            {
                OFFSET -0.000000 -62.821102 0.000000
                CHANNELS 3 Zrotation Xrotation Yrotation
                JOINT RightToeBase
                {
                    OFFSET -0.000000 -11.507608 26.556021
                    CHANNELS 3 Zrotation Xrotation Yrotation
                    End Site
                    {
                        OFFSET -0.000000 0.000000 7.081605
                    }
                }
            }
        }
    }
}
MOTION
Frames:    4
Frame Time:    0.008333
18.640467    154.043610    -103.386482    0.666773    -5.689987    38.976181    -3.171815    -0.194276    -4.110254    -1.327298    2.005709    -1.347677    3.946856    2.226513    -16.379417    13.375842    5.994762    -16.413427    6.510078    9.523944    -17.860050    -28.351070    23.303282    -50.988411    -4.616039    -9.740760    -107.530479    7.135600    -16.398104    -8.480805    1.936272    8.844515    -10.738841    36.613972    7.028049    18.652782    -13.547088    -18.964748    86.758049    4.700451    -5.348025    25.146616    16.830189    -1.168716    0.576491    -15.022194    36.646122    -16.613317    6.794798    -29.524712    44.698975    0.000000    0.000000    0.000000    -18.278219    -16.591265    -12.305126    12.637239    31.789541    -13.350194    4.559415    -1.635589    -17.946951    0.000000    0.000000    0.000000    
18.638035    154.049683    -103.411652    0.670793    -5.686149    38.965157    -3.162028    -0.185880    -4.111270    -1.343961    1.977643    -1.348143    3.919601    2.261606    -16.390099    13.405881    5.995822    -16.417416    6.498584    9.556021    -17.861675    -28.353008    23.299036    -51.006401    -4.593107    -9.813902    -107.499130    7.184829    -16.437214    -8.447699    1.911959    8.839514    -10.699745    36.593124    7.029616    18.689753    -13.537506    -18.948435    86.681396    4.724201    -5.352933    25.130438    16.821146    -1.169988    0.621818    -15.004013    36.648109    -16.643036    6.789204    -29.520578    44.688522    0.000000    0.000000    0.000000    -18.280466    -16.587061    -12.294992    12.630850    31.755125    -13.355227    4.560579    -1.616852    -17.937677    0.000000    0.000000    0.000000    
18.631474    154.056915    -103.438438    0.671901    -5.682158    38.958508    -3.153902    -0.175009    -4.106613    -1.357535    1.957397    -1.346682    3.902701    2.264881    -16.403931    13.412564    6.010608    -16.430788    6.486516    9.575430    -17.869350    -28.363779    23.284876    -51.013268    -4.574666    -9.851481    -107.475929    7.182176    -16.446554    -8.445827    1.905013    8.839475    -10.699849    36.553825    7.027727    18.771490    -13.499770    -18.923569    86.604958    4.720134    -5.381928    25.114180    16.812250    -1.177025    0.645690    -14.989172    36.645870    -16.646963    6.778196    -29.505476    44.671047    0.000000    0.000000    0.000000    -18.277800    -16.586496    -12.305010    12.605890    31.720531    -13.333672    4.559632    -1.587022    -17.931759    0.000000    0.000000    0.000000    
18.628599    154.063446    -103.460655    0.675965    -5.684362    38.951393    -3.139585    -0.165820    -4.104882    -1.381084    1.944239    -1.345914    3.892039    2.277810    -16.417452    13.417872    6.017940    -16.443554    6.483873    9.587583    -17.862560    -28.382431    23.290819    -51.024334    -4.564949    -9.894945    -107.456978    7.168767    -16.472416    -8.437423    1.904301    8.833194    -10.679473    36.520588    7.045886    18.835436    -13.489888    -18.933231    86.522476    4.726295    -5.418947    25.107317    16.805479    -1.173988    0.663269    -14.979584    36.640003    -16.659597    6.769291    -29.499315    44.666973    0.000000    0.000000    0.000000    -18.276257    -16.579294    -12.310394    12.585562    31.695406    -13.305454    4.564120    -1.564391    -17.933754    0.000000    0.000000    0.000000    
